<svg width="105" height="28" viewBox="0 0 105 28" fill="none" xmlns="http://www.w3.org/2000/svg">
    <path d="M44.1518 12.4964C42.2418 12.0438 40.5943 11.6546 40.5943 10.3239C40.5943 8.5406 42.794 8.35051 43.7354 8.35051C45.048 8.35051 45.7903 8.53155 46.7679 8.97511C47.2386 8.62207 49.4021 7.03793 49.4021 7.03793C47.9809 6.13271 45.8446 5.42664 43.7625 5.42664C38.811 5.42664 37.0458 8.06083 37.0458 10.523C37.0458 14.0715 40.1326 14.8138 42.8573 15.4656C44.7673 15.9272 46.4239 16.3165 46.4239 17.6743C46.4239 18.3713 46.0075 19.53 43.2375 19.53C41.3999 19.53 39.3813 18.8873 37.951 17.8372L36.7471 20.5891C38.2045 21.7297 40.7301 22.4539 43.2104 22.4539C47.3201 22.4539 49.9724 20.4624 49.9724 17.3846C49.9633 13.8724 46.8765 13.1391 44.1518 12.4964Z" fill="#21A038"/>
    <path d="M65.0083 13.6823L64.8363 13.628L64.9902 13.5465C66.3481 12.8133 67.0903 11.5369 67.0903 9.9618C67.0903 7.3095 64.8363 5.71631 61.0615 5.71631H53.2676V22.1642H61.5232C65.6329 22.1642 67.896 20.5801 67.896 17.7105C67.896 15.7552 66.8459 14.2888 65.0083 13.6823ZM56.8251 8.45008H60.6089C62.9987 8.45008 63.4966 9.5454 63.4966 10.4597C63.4966 11.7813 62.5009 12.4693 60.6089 12.4693H56.8251V8.45008ZM56.8251 12.4693H60.6089H56.8251ZM61.2516 19.4304H56.8251V15.2121H61.2516C63.2703 15.2121 64.3022 15.9091 64.3022 17.3213C64.3022 18.7334 63.3065 19.4304 61.2516 19.4304Z" fill="#21A038"/>
    <path d="M79.9353 8.4501L83.6558 5.70728H71.209V22.1642H83.6558V19.4305H74.7575V15.2121H82.3432V12.4693H74.7575V8.4501H79.9353Z" fill="#21A038"/>
    <path d="M101 22.1643L97.3879 16.8144C99.5242 15.882 100.755 14.0535 100.755 11.5912C100.755 7.9613 98.0668 5.69824 93.7489 5.69824H86.9688V22.1643H90.5172V17.5024H93.7398C93.8394 17.5024 93.939 17.5024 94.0385 17.4933L97.1978 22.1643H101ZM90.5082 8.45012H93.6583C95.9305 8.45012 97.1887 9.5726 97.1887 11.6093C97.1887 13.6461 95.9395 14.7686 93.6583 14.7686H90.5082V8.45012Z" fill="#21A038"/>
    <path d="M24.8737 5.4397C25.529 6.29391 26.0895 7.22728 26.5376 8.22221L13.8861 17.6241L8.6001 14.2831V10.2637L13.8861 13.6048L24.8737 5.4397Z" fill="#21A038"/>
    <path d="M3.20783 13.9995C3.20783 13.8193 3.2122 13.6401 3.22092 13.4619L0.0174462 13.3003C0.00654256 13.5323 0 13.7654 0 13.9995C0 17.8649 1.55376 21.3653 4.06704 23.8994L6.33826 21.6094C4.40614 19.6591 3.20783 16.9679 3.20783 13.9995Z" fill="url(#paint0_linear)"/>
    <path d="M13.8846 3.23326C14.0634 3.23326 14.2411 3.23986 14.4178 3.24865L14.5781 0.0175904C14.348 0.00659665 14.1169 0 13.8846 0C10.0509 0 6.57919 1.56661 4.06592 4.10067L6.33713 6.39066C8.27143 4.44038 10.9406 3.23326 13.8846 3.23326Z" fill="url(#paint1_linear)"/>
    <path d="M13.8854 24.7657C13.7066 24.7657 13.5289 24.7613 13.3522 24.7525L13.1919 27.9824C13.4219 27.9935 13.6531 28 13.8854 28C17.719 28 21.1908 26.4334 23.7041 23.8994L21.4328 21.6094C19.4985 23.5575 16.8293 24.7657 13.8854 24.7657Z" fill="url(#paint2_linear)"/>
    <path d="M19.9061 5.1121L22.6069 3.10573C20.2234 1.16314 17.1901 0 13.8862 0V3.23437C16.1183 3.23326 18.191 3.92807 19.9061 5.1121Z" fill="url(#paint3_linear)"/>
    <path d="M27.7707 13.9995C27.7707 13.1431 27.6943 12.3053 27.5483 11.4907L24.5596 13.7115C24.5617 13.8071 24.5639 13.9027 24.5639 13.9984C24.5639 17.1591 23.2053 20.0065 21.0464 21.9777L23.2021 24.3798C26.0076 21.8194 27.7707 18.1167 27.7707 13.9995Z" fill="#21A038"/>
    <path d="M13.8866 24.7657C10.7518 24.7657 7.92777 23.3959 5.97276 21.2191L3.59033 23.3925C6.13086 26.2224 9.80322 28 13.8866 28V24.7657Z" fill="url(#paint4_linear)"/>
    <path d="M6.72533 6.01932L4.5697 3.61719C1.76311 6.17873 0 9.88141 0 13.9986H3.20783C3.20892 10.8368 4.56642 7.9905 6.72533 6.01932Z" fill="url(#paint5_linear)"/>
    <defs>
        <linearGradient id="paint0_linear" x1="4.71674" y1="23.494" x2="1.16006" y2="13.2975" gradientUnits="userSpaceOnUse">
            <stop offset="0.1444" stop-color="#F2E913"/>
            <stop offset="0.3037" stop-color="#E7E518"/>
            <stop offset="0.5823" stop-color="#CADB26"/>
            <stop offset="0.891" stop-color="#A3CD39"/>
        </linearGradient>
        <linearGradient id="paint1_linear" x1="4.9827" y1="4.67242" x2="14.0283" y2="1.25361" gradientUnits="userSpaceOnUse">
            <stop offset="0.0592" stop-color="#0FA8E0"/>
            <stop offset="0.5385" stop-color="#0099F9"/>
            <stop offset="0.9234" stop-color="#0291EB"/>
        </linearGradient>
        <linearGradient id="paint2_linear" x1="12.9802" y1="26.048" x2="23.1961" y2="23.7581" gradientUnits="userSpaceOnUse">
            <stop offset="0.1226" stop-color="#A3CD39"/>
            <stop offset="0.2846" stop-color="#86C339"/>
            <stop offset="0.8693" stop-color="#21A038"/>
        </linearGradient>
        <linearGradient id="paint3_linear" x1="13.2152" y1="1.08331" x2="21.955" y2="3.75783" gradientUnits="userSpaceOnUse">
            <stop offset="0.0566" stop-color="#0291EB"/>
            <stop offset="0.79" stop-color="#0C8ACB"/>
        </linearGradient>
        <linearGradient id="paint4_linear" x1="4.39492" y1="22.9984" x2="13.9139" y2="26.5258" gradientUnits="userSpaceOnUse">
            <stop offset="0.1324" stop-color="#F2E913"/>
            <stop offset="0.2977" stop-color="#EBE716"/>
            <stop offset="0.5306" stop-color="#D9E01F"/>
            <stop offset="0.8023" stop-color="#BBD62D"/>
            <stop offset="0.9829" stop-color="#A3CD39"/>
        </linearGradient>
        <linearGradient id="paint5_linear" x1="1.19554" y1="14.3904" x2="5.0639" y2="4.40981" gradientUnits="userSpaceOnUse">
            <stop offset="0.0698" stop-color="#A3CD39"/>
            <stop offset="0.2599" stop-color="#81C55F"/>
            <stop offset="0.9216" stop-color="#0FA8E0"/>
        </linearGradient>
    </defs>
</svg>
